# xmcd CD database file
#
# Track frame offsets:
#	150
#	20351
#	36355
#	55277
#	75615
#	91090
#	105940
#	132922
#	155610
#	177044
#	198634
#	219989
#	236599
#	249866
#	269640
#	288286
#	299593
#	314633
#	336176
#
# Disc length: 4727 seconds
#
# Revision: 0
# Processed by: cddbd v1.5.1PL0 Copyright (c) Steve Scherf et al.
# Submitted via: CDex 1.51
#
DISCID=12127513
DTITLE=Various Artist - Sabor Dominicano Merengue Top 100 CD 1
DYEAR=2003
DGENRE=Merengue
TTITLE0=Alex Bueno - Querida
TTITLE1=Rubby Pérez - Cuando Estés Con El
TTITLE2=Dionis Fernández - Como Es Posible
TTITLE3=Los Toros Band - Quizás Sí, Quizás No
TTITLE4=Los Hermanos Rosario - La Loca
TTITLE5=Johnny Ventura - El Tabaco
TTITLE6=Josie Esteban - Seguro Que Sí
TTITLE7=Sergio Vargas - La Quiero A Morir
TTITLE8=Los Hermanos Rosario - Ya Viene El Lunes
TTITLE9=Alex Bueno - Colegiala
TTITLE10=Sergio Vargas - Madre
TTITLE11=Aramis Camilo - El Motor
TTITLE12=Johnny Ventura - La Agarradera
TTITLE13=Wilfrido Vargas - El Jardinero
TTITLE14=Juan Luis Guerra - Ojalá Que Llueva Café
TTITLE15=Alberto Beltran Y La Sonora - El Negrito Del Batey
TTITLE16=Juan Luis Guerra - Amor De Conuco
TTITLE17=Fernando Villalona - Sé Que Te Perdi
TTITLE18=Wilfrido Vargas - Abusadora
EXTD=YEAR: 2003
EXTT0=
EXTT1=
EXTT2=
EXTT3=
EXTT4=
EXTT5=
EXTT6=
EXTT7=
EXTT8=
EXTT9=
EXTT10=
EXTT11=
EXTT12=
EXTT13=
EXTT14=
EXTT15=
EXTT16=
EXTT17=
EXTT18=
PLAYORDER=
